<svg xmlns="http://www.w3.org/2000/svg" viewBox="0 0 213.48 213.48"><defs><style>.cls-1,.cls-4{fill:#c09328;stroke:#c09328;}.cls-1,.cls-2,.cls-3,.cls-4,.cls-5{stroke-linecap:round;stroke-linejoin:round;}.cls-1{stroke-width:0.4px;}.cls-2{fill-opacity:0;stroke:#000;stroke-opacity:0;}.cls-2,.cls-3,.cls-4,.cls-5{stroke-width:0.05px;}.cls-3{fill:#fff;stroke:#fff;}.cls-5{fill:#fefefe;stroke:#fefefe;}</style></defs><title>mostaza_icon</title><g id="Capa_2" data-name="Capa 2"><g id="Capa_1-2" data-name="Capa 1"><g id="g5075"><path id="path3230-0-5-2" class="cls-1" d="M213.28,106.74A106.54,106.54,0,1,1,106.74.2,106.54,106.54,0,0,1,213.28,106.74Z"/><g id="g5066"><path id="path4377" class="cls-2" d="M93.31,47.09l39.43,39.43,50.32-50.76-9.52-9.52-12.47-9.52L150.2,10.37l-7.48-3.62-7.26-1.81Z"/><g id="g4371"><g id="g4365"><path id="path4361" class="cls-3" d="M168,166.17a24.59,24.59,0,0,0-1.76-4.47l-2.57-2.43-4.32-2.88L154,154.31l-7.53-2.09-6.25-1.12-8.34-.64-5.12.32L120.52,153l-7.06,2.56-5.44,1-8.66.16-6.57-.8-6.89-1.12-6.73-1-5.93-.48-7-.81-6.89.32-.64-1.92-1-4.32.48-3.21.8-1.12,4.81-3,4.48-4.16L70.36,132l.16-4.16-.32-4L69.56,121l-1-2.57v-2.56l1.77-1.77L73.24,113l2.89-1.6,2.24-2.24,1.92-3.05,1-3.2,1.13-2.09L82.06,99l-2.25-2.08H77.73l-1.6,1-1.29,2.72-1.12,3-1.28,2.08-3,1.44-3.53,1.45-2.4,2.56-1.61,3.21-.16,3.36,1,4,.81,4,.64,3.05-.64,1.76-2.89,2.24-2.4,1.93-2.73,1.92-1.92,1.6-1.6,2.89-1,4.32.32,4.65.64,2.56.48,2.41-3.69,1.44L45,159.44l-1.93,2.88-1,4,1.12,4.32L47,174.82,52.57,180,58,183l6.89,2.57L71.48,187l10.41,1.12,11.22.64,13,1.12,11.54-.32,11.22-1,8.81-1.6,8.17-2.25,8.5-3.68,6.41-3.69,4.64-4.32,2.25-3.53.34-3.28"/><path id="path4363" class="cls-4" d="M135.8,179.16l4.31-.8,3.29-.9,4.25-1.76,2.83-1.53,2.15-1.3,1.76-1.31,2-1.75,1.47-2,1.19-2.44.46-2,0-1.36,0-.57.85,1.13.62,1.53.23,1.25L161,166.8l-.29,1.14-.56,1.13-.85,1.3-.91,1.08-1.64,1.25-1.7,1.36-1.81,1.19-2.38,1.53-1.48.85-1.64.73-1.81.57-1.82.62-1.7.17-1.92.12-1.93-.17-1.25-.12Z"/></g><path id="path4369" class="cls-5" d="M86.4,91.51,99.09,72.24l-10-9.63,6.8-6.8,28.21,28.11-6.8,6.79-10-9.85L88.89,93.66Z"/></g><path id="path4406" class="cls-3" d="M93.54,46.86l39.88,39.89L185.78,33.6c-3.68-4.89-8.69-8.88-14.17-12.57-1.8-2-5.78-4.29-9.63-6.58-3-3.51-7.13-5.54-13-7.25-1.48-1.81-6.92-2.45-12.58-4Z"/></g></g></g></g></svg>