<svg xmlns="http://www.w3.org/2000/svg" viewBox="0 0 216.08 216.08"><defs><style>.cls-1,.cls-5{fill:#82104e;}.cls-1,.cls-5,.cls-7{stroke:#82104e;}.cls-1,.cls-4,.cls-7{stroke-linecap:round;stroke-linejoin:round;}.cls-1{stroke-width:3px;}.cls-2,.cls-3{isolation:isolate;}.cls-3{font-size:55.77px;font-family:MyriadPro-Regular, Myriad Pro;}.cls-3,.cls-4,.cls-6,.cls-7{fill:#fff;}.cls-4,.cls-6{stroke:#fff;}.cls-4,.cls-5,.cls-6{stroke-width:0.05px;}.cls-7{stroke-width:0.78px;}</style></defs><title>sulfitos_icon</title><g id="Capa_2" data-name="Capa 2"><g id="Capa_1-2" data-name="Capa 1"><g id="g3276"><path id="path3230-2-9" class="cls-1" d="M214.58,108A106.54,106.54,0,1,1,108,1.5,106.54,106.54,0,0,1,214.58,108Z"/><g id="g4196"><g id="g4054"><g id="text4061" class="cls-2"><text class="cls-3" transform="translate(59.27 74.43)">E</text></g><g id="text4061-7" class="cls-2"><text class="cls-3" transform="translate(92.34 74.71)">-</text></g><g id="text4061-76" class="cls-2"><text class="cls-3" transform="translate(110 74.43)">X</text></g></g><path id="path4062" class="cls-4" d="M142.19,181.82l-.1-7,33.63-20-.43-41.47L141.88,94.42l-.1-7.68-5.12,0v7.53l-28.87,16.83-29.4-17,.12-7.19-4.89-.09V94L40.25,113.1,40,155.34l33.63,19.47,0,6.86,5.08.18-.05-7.1,28.75-16.94,29.3,16.69-.21,7.46Z"/><path id="path4074" class="cls-5" d="M76.33,103.23l26.78,15.5.07,31L76,165.94,48.8,150.25l.12-31.86Z"/><path id="path3266" class="cls-6" d="M54,120.31l2.66,4.47,20.69-12-2.49-4.42Z"/><path id="path4074-5" class="cls-5" d="M140.05,101.56l26.78,15.5.07,31-27.18,16.24-27.2-15.69.12-31.86Z"/><path id="path3266-0" class="cls-6" d="M117.3,120.26l2.66,4.47,20.7-12-2.5-4.42Z"/><path id="path4054" class="cls-6" d="M157.46,122.44l4.94.1-.1,25-21.85,12.95L138,156l19.38-11Z"/><path id="path4054-2" class="cls-6" d="M93.93,122.39l5.43.1-.09,25-21.86,13-2.87-4.25,19.39-11.07Z"/><path id="path4064" class="cls-7" d="M53,117a7.69,7.69,0,1,1-7.68-7.68A7.68,7.68,0,0,1,53,117Z"/><path id="path4064-8" class="cls-7" d="M52.65,151.78A7.68,7.68,0,1,1,45,144.1,7.68,7.68,0,0,1,52.65,151.78Z"/><path id="path4064-2" class="cls-7" d="M115.49,153.47a7.68,7.68,0,1,1-7.68-7.68A7.68,7.68,0,0,1,115.49,153.47Z"/><path id="path4064-0" class="cls-7" d="M178.79,152.74a7.69,7.69,0,1,1-7.69-7.68A7.68,7.68,0,0,1,178.79,152.74Z"/></g></g></g></g></svg>