<svg xmlns="http://www.w3.org/2000/svg" viewBox="0 0 213.48 213.48"><defs><style>.cls-1,.cls-3,.cls-4{fill:#6d351e;stroke:#6d351e;}.cls-1,.cls-2,.cls-4{stroke-linecap:round;}.cls-1,.cls-2,.cls-3,.cls-4{stroke-linejoin:round;}.cls-1{stroke-width:0.4px;}.cls-2{fill:#fff;stroke:#fff;}.cls-2,.cls-3,.cls-4{stroke-width:0.05px;}</style></defs><title>lacteos_icon</title><g id="Capa_2" data-name="Capa 2"><g id="Capa_1-2" data-name="Capa 1"><g id="g4972"><path id="path3230-0-5" class="cls-1" d="M213.28,106.74A106.54,106.54,0,1,1,106.74.2,106.54,106.54,0,0,1,213.28,106.74Z"/><g id="g4264"><path id="path4240" class="cls-2" d="M118.06,44.65l11.09-3.75,8.14-2.12,5.22.16,3.91,1.31,3.26,3.09.33,3.75-.66,2.61L146.58,52l-4.72,2.45-3.42,2.12-2,2.6-1.3,5.54-1,4.57,1,7L138.76,81l4.89,6.84L149,99.41l2.28,7.49,2.12,13.2.65,9.29-.49,9-1.79,9.78-2.93,7L145.44,161l-3.91,6.35-3.75,3.75-4.56,2.61-8.31,1-22.49-.33-7.17-.65-3.42-.82-2.77-1.79-3.59-3.91-7.66-11.41-2.93-8.15-2-7.33L72.6,133l.16-3.1-2.44-3.59-3.59-6.51-3.26-6.69L60.54,103l-1.14-5.7.81-8.15,1.47-8,3.1-6.52,6-6.68L77,64.53l6.68-2.28-2.77-5.54-.82-4.08.66-2.77,3.58-2.6,7.17-2.12L99.16,44h11.57l3.42.49-.65.32-2.93.82h-3.91l-4.73.32-6.68.65-5,1.63-2.94,1.63.82,1.63,3.26.82,4.89.65,2.12-.16,4.56-1.63,7.66-3.26,5.54-2.45Z"/><path id="path4253" class="cls-3" d="M73.17,116.92l1.22-7.66,2.53-8.63L80,92.72l2.77-5.13L85.15,84l.73-1.3,1.06-3,.24-5-.57-3.43-.73-.89-1.14-.57-.9.32-4.72,2.61L75.78,75.2,71.13,80l-2.44,4.16L67,89.38l-.49,5.46.57,5.38,1,5,1.55,4.56,1.63,3.43Z"/><path id="path4255" class="cls-4" d="M94.11,62.9l2.2-.73,2.44-.08,1.47.32.81,1.71.33,2.61v5.13l-.16,4.65-.74,4.56L99,84.66l-.9,1.79-1.3,2.61-1.55,2.52-2.45,4-1.63,3.83L88.4,105.6l-2,5.7-1.3,3.18-1.06,2.61-1.06.57-.9-.17-.57-.4-.33-1.63,1.47-7.83,2-5.78,2.77-7.5,2.85-5.29,2.36-4.57,1.63-3.66.49-3L94,71.13l-.41-4.73-.08-1.87Z"/></g></g></g></g></svg>