<svg xmlns="http://www.w3.org/2000/svg" viewBox="0 0 514.11 138.89"><defs><style>.cls-1,.cls-2{fill:#fff;}.cls-1{fill-rule:evenodd;}</style></defs><title>imagotipo_negativo</title><g id="Capa_2" data-name="Capa 2"><g id="Capa_1-2" data-name="Capa 1"><path class="cls-1" d="M145.45,73.12a5.68,5.68,0,0,1-.16,1.44,73.09,73.09,0,0,1-145.13,0A5.68,5.68,0,0,1,0,73.12a7.35,7.35,0,0,1,7.3-7.35H36.19a7.33,7.33,0,0,1,0,14.65H16.09a58.49,58.49,0,0,0,113.27,0H109.27a7.33,7.33,0,0,1,0-14.65h28.84A7.36,7.36,0,0,1,145.45,73.12Z"/><path class="cls-2" d="M92.51,60.62a7.3,7.3,0,0,1,0,10.35L63.3,100.19h0A7.3,7.3,0,1,1,52.94,89.87L77,65.82l-24.1-24.1a7.29,7.29,0,0,1,0-10.32v0L82.2,2.15A7.29,7.29,0,1,1,92.51,12.46L68.46,36.56Z"/><path class="cls-2" d="M221.19,113.09a40.79,40.79,0,0,1-13.42-2.2,34.64,34.64,0,0,1-11.11-6.16,24.29,24.29,0,0,1-6.93-9.13,4.36,4.36,0,0,1,.05-4.29,6,6,0,0,1,7.82-1.92,6.76,6.76,0,0,1,2.91,3.13,14.22,14.22,0,0,0,4.34,5.06,24.94,24.94,0,0,0,7.32,3.74,29.37,29.37,0,0,0,18.76-.22,17.42,17.42,0,0,0,7.2-4.78,11.37,11.37,0,0,0,2.75-7.76,14.49,14.49,0,0,0-4.57-10.45q-4.56-4.62-15-5.72-13.63-1.32-21.45-8A21,21,0,0,1,192,47.75a19.06,19.06,0,0,1,4.07-12.32,25.3,25.3,0,0,1,11-7.7,43.77,43.77,0,0,1,15.57-2.64A33.63,33.63,0,0,1,234.45,27a27.83,27.83,0,0,1,8.74,5.17,33.92,33.92,0,0,1,6.49,7.81A6.89,6.89,0,0,1,251,44.51a4.52,4.52,0,0,1-2.15,3.35,5.12,5.12,0,0,1-4.51.55,6.18,6.18,0,0,1-3.63-2.86,19.63,19.63,0,0,0-4.29-5.39,19.18,19.18,0,0,0-5.94-3.46,23.13,23.13,0,0,0-8-1.27q-8.15-.1-13.64,3a10.34,10.34,0,0,0-5.5,9.62A12.7,12.7,0,0,0,205,54.41q1.69,3,6.27,5.22t13.14,3.08q13.1,1.32,20.4,8t7.32,17.54a21.88,21.88,0,0,1-2.59,10.89,23.72,23.72,0,0,1-6.93,7.76,30.55,30.55,0,0,1-9.9,4.67A42.64,42.64,0,0,1,221.19,113.09Z"/><path class="cls-2" d="M296.76,112.43a33.14,33.14,0,0,1-16.23-3.9,28.58,28.58,0,0,1-11.11-10.78,30.79,30.79,0,0,1-4-15.79,32.33,32.33,0,0,1,3.79-15.89,27.71,27.71,0,0,1,10.51-10.78,30.06,30.06,0,0,1,15.4-3.91,27.56,27.56,0,0,1,14.74,3.8,24.72,24.72,0,0,1,9.4,10.45A34.5,34.5,0,0,1,322.5,81a4.62,4.62,0,0,1-1.43,3.47,5,5,0,0,1-3.63,1.37H273.11V77h44l-4.51,3.08a23.71,23.71,0,0,0-2.2-9.84,16,16,0,0,0-15.29-9.41,20.07,20.07,0,0,0-10.73,2.75,17.76,17.76,0,0,0-6.76,7.54A24.6,24.6,0,0,0,275.31,82a21,21,0,0,0,2.75,10.78,20,20,0,0,0,7.59,7.48A22,22,0,0,0,296.76,103a20.91,20.91,0,0,0,7-1.26,21.59,21.59,0,0,0,5.78-2.92,6.3,6.3,0,0,1,3.57-1.26,4.83,4.83,0,0,1,3.36,1.15,5.26,5.26,0,0,1,2,3.63,3.92,3.92,0,0,1-1.76,3.41,30.3,30.3,0,0,1-9.3,4.84A33.14,33.14,0,0,1,296.76,112.43Z"/><path class="cls-2" d="M342.3,112a5.62,5.62,0,0,1-4.07-1.37,5.45,5.45,0,0,1-1.43-4.13V57.32a5,5,0,0,1,5.5-5.5,4.87,4.87,0,0,1,5.5,5.5v49.17a5.62,5.62,0,0,1-1.38,4.07A5.44,5.44,0,0,1,342.3,112Zm-.11-37.62a22,22,0,0,1,3.24-11.82,23.84,23.84,0,0,1,8.75-8.31,24.36,24.36,0,0,1,12.1-3.08q6.6,0,9.84,2.15t2.48,5.11a4.25,4.25,0,0,1-1.27,2.37,4.3,4.3,0,0,1-2.14,1,6.45,6.45,0,0,1-2.64-.11,31,31,0,0,0-12.65-.22A17.16,17.16,0,0,0,351,66a11.45,11.45,0,0,0-3.24,8.36Z"/><path class="cls-2" d="M410.61,111.88q-3.42,0-5.28-3.63L382,59.08a4.44,4.44,0,0,1-.17-3.68,5.25,5.25,0,0,1,2.81-2.81,4.59,4.59,0,0,1,3.79-.33,5.11,5.11,0,0,1,2.92,2.53l21.78,47h-5.28l21.56-47a5.07,5.07,0,0,1,3-2.53,5.44,5.44,0,0,1,4.13.33,4.67,4.67,0,0,1,2.64,2.75,4.78,4.78,0,0,1-.22,3.74l-23.32,49.17Q414,111.88,410.61,111.88Z"/><path class="cls-2" d="M457.24,42A7.31,7.31,0,0,1,450,34.77a7.26,7.26,0,1,1,12.37,5.12A7,7,0,0,1,457.24,42Zm0,70a5.44,5.44,0,0,1-5.6-5.61V57.43a5.42,5.42,0,0,1,1.59-4.07,5.59,5.59,0,0,1,9.63,4.07v48.95a5.57,5.57,0,0,1-1.54,4A5.43,5.43,0,0,1,457.24,112Z"/><path class="cls-2" d="M481.22,63.48a5.31,5.31,0,0,1-3.74-1.32,4.32,4.32,0,0,1-1.43-3.3,4.58,4.58,0,0,1,1.43-3.52A5.31,5.31,0,0,1,481.22,54h25.41a5.29,5.29,0,0,1,3.74,1.32,4.55,4.55,0,0,1,1.43,3.52,4.28,4.28,0,0,1-1.43,3.3,5.29,5.29,0,0,1-3.74,1.32ZM505.64,112a18.05,18.05,0,0,1-9.9-2.8,19.73,19.73,0,0,1-6.93-7.65,23.19,23.19,0,0,1-2.53-10.89V38.18a5.5,5.5,0,1,1,11,0V90.65A11.29,11.29,0,0,0,499.7,98a7.41,7.41,0,0,0,5.94,3h3.74a4.37,4.37,0,0,1,3.36,1.54,5.71,5.71,0,0,1,1.37,4,4.93,4.93,0,0,1-1.81,4,7,7,0,0,1-4.68,1.54Z"/></g></g></svg>