<svg xmlns="http://www.w3.org/2000/svg" viewBox="0 0 243 243"><defs><style>.cls-1{fill:#fff;}.cls-2,.cls-3{fill:#ef5350;}.cls-2{fill-rule:evenodd;}</style></defs><title>isotipo_positivo_fondo</title><g id="Capa_2" data-name="Capa 2"><g id="Capa_1-2" data-name="Capa 1"><rect class="cls-1" width="243" height="243"/><path class="cls-2" d="M194.18,125.32a5.68,5.68,0,0,1-.16,1.44,73.09,73.09,0,0,1-145.13,0,5.68,5.68,0,0,1-.16-1.44A7.35,7.35,0,0,1,56,118H84.92a7.33,7.33,0,0,1,0,14.65H64.82a58.5,58.5,0,0,0,113.27,0H158A7.33,7.33,0,0,1,158,118h28.84A7.36,7.36,0,0,1,194.18,125.32Z"/><path class="cls-3" d="M141.24,112.81a7.32,7.32,0,0,1,0,10.36L112,152.38h0a7.29,7.29,0,1,1-10.32-10.31L125.77,118l-24.1-24.1a7.28,7.28,0,0,1,0-10.31v0l29.26-29.22a7.29,7.29,0,1,1,10.31,10.32l-24.05,24.1Z"/></g></g></svg>