<svg xmlns="http://www.w3.org/2000/svg" viewBox="0 0 513.48 138.89"><defs><style>.cls-1,.cls-2{fill:#ef5350;}.cls-1{fill-rule:evenodd;}.cls-3{fill:#5c6bc0;}</style></defs><title>slogan_positivo2_1</title><g id="Capa_2" data-name="Capa 2"><g id="Capa_1-2" data-name="Capa 1"><path class="cls-1" d="M145.45,73.12a5.68,5.68,0,0,1-.16,1.44,73.09,73.09,0,0,1-145.13,0A5.68,5.68,0,0,1,0,73.12a7.35,7.35,0,0,1,7.3-7.35H36.19a7.33,7.33,0,0,1,0,14.65H16.09a58.49,58.49,0,0,0,113.27,0H109.27a7.33,7.33,0,0,1,0-14.65h28.84A7.36,7.36,0,0,1,145.45,73.12Z"/><path class="cls-2" d="M92.51,60.62a7.3,7.3,0,0,1,0,10.35L63.3,100.19h0A7.3,7.3,0,1,1,52.94,89.87L77,65.82l-24.1-24.1a7.29,7.29,0,0,1,0-10.32v0L82.2,2.15A7.29,7.29,0,1,1,92.51,12.46L68.46,36.56Z"/><path class="cls-2" d="M220.55,88.59a40.79,40.79,0,0,1-13.42-2.2A34.64,34.64,0,0,1,196,80.23a24.29,24.29,0,0,1-6.93-9.13,4.36,4.36,0,0,1,.06-4.29A6,6,0,0,1,197,64.89,6.76,6.76,0,0,1,199.87,68a14.15,14.15,0,0,0,4.35,5.06,24.76,24.76,0,0,0,7.31,3.74,28.16,28.16,0,0,0,9,1.43,27.85,27.85,0,0,0,9.74-1.65,17.36,17.36,0,0,0,7.2-4.78,11.37,11.37,0,0,0,2.75-7.76,14.52,14.52,0,0,0-4.56-10.45q-4.58-4.62-15-5.72-13.64-1.32-21.45-8a21,21,0,0,1-7.81-16.61,19.06,19.06,0,0,1,4.07-12.32,25.28,25.28,0,0,1,11.06-7.7A43.68,43.68,0,0,1,222.09.59a33.63,33.63,0,0,1,11.72,1.87,27.83,27.83,0,0,1,8.74,5.17A33.92,33.92,0,0,1,249,15.44,6.89,6.89,0,0,1,250.31,20a4.52,4.52,0,0,1-2.15,3.35,5.12,5.12,0,0,1-4.51.55A6.18,6.18,0,0,1,240,21.05a19.63,19.63,0,0,0-4.29-5.39,19.18,19.18,0,0,0-5.94-3.46,23.13,23.13,0,0,0-8-1.27q-8.14-.11-13.64,3a10.34,10.34,0,0,0-5.5,9.62,12.7,12.7,0,0,0,1.71,6.33q1.69,3,6.27,5.22t13.14,3.08q13.09,1.32,20.41,8t7.31,17.54a22,22,0,0,1-2.58,10.89A24,24,0,0,1,242,82.38a30.75,30.75,0,0,1-9.9,4.67A42.77,42.77,0,0,1,220.55,88.59Z"/><path class="cls-2" d="M296.12,87.93A33.1,33.1,0,0,1,279.9,84a28.51,28.51,0,0,1-11.11-10.78,30.7,30.7,0,0,1-4-15.79,32.34,32.34,0,0,1,3.8-15.89,27.76,27.76,0,0,1,10.5-10.78,30.09,30.09,0,0,1,15.4-3.91,27.56,27.56,0,0,1,14.74,3.8,24.75,24.75,0,0,1,9.41,10.45,34.64,34.64,0,0,1,3.24,15.34,4.62,4.62,0,0,1-1.43,3.47,5,5,0,0,1-3.63,1.37H272.47v-8.8h44L312,55.59a23.55,23.55,0,0,0-2.2-9.84,16,16,0,0,0-15.29-9.41,20,20,0,0,0-10.72,2.75A17.78,17.78,0,0,0,277,46.63a24.6,24.6,0,0,0-2.31,10.83,21.06,21.06,0,0,0,2.75,10.78A20,20,0,0,0,285,75.72a22,22,0,0,0,11.11,2.75,21,21,0,0,0,7-1.26,21.66,21.66,0,0,0,5.77-2.92A6.3,6.3,0,0,1,312.46,73a4.81,4.81,0,0,1,3.35,1.15,5.19,5.19,0,0,1,2,3.63A3.9,3.9,0,0,1,316,81.22a30.24,30.24,0,0,1-9.29,4.84A33.24,33.24,0,0,1,296.12,87.93Z"/><path class="cls-2" d="M341.66,87.49a5.62,5.62,0,0,1-4.07-1.37A5.45,5.45,0,0,1,336.16,82V32.82a5.49,5.49,0,0,1,1.43-4.07,5.51,5.51,0,0,1,4.07-1.43,5.57,5.57,0,0,1,4.12,1.38,5.59,5.59,0,0,1,1.38,4.12V82a5.62,5.62,0,0,1-1.38,4.07A5.43,5.43,0,0,1,341.66,87.49Zm-.11-37.62a22,22,0,0,1,3.24-11.82,23.92,23.92,0,0,1,8.75-8.31,24.39,24.39,0,0,1,12.1-3.08q6.6,0,9.84,2.15c2.17,1.43,3,3.13,2.48,5.11a4.19,4.19,0,0,1-1.27,2.37,4.26,4.26,0,0,1-2.14,1,6.45,6.45,0,0,1-2.64-.11A31,31,0,0,0,359.26,37a17.2,17.2,0,0,0-8.86,4.51,11.45,11.45,0,0,0-3.24,8.36Z"/><path class="cls-2" d="M410,87.38q-3.42,0-5.28-3.63L381.37,34.58a4.48,4.48,0,0,1-.17-3.68A5.25,5.25,0,0,1,384,28.09a4.59,4.59,0,0,1,3.79-.33,5.08,5.08,0,0,1,2.92,2.53l21.78,47h-5.28l21.56-47a5.1,5.1,0,0,1,3-2.53,5.44,5.44,0,0,1,4.13.33,4.67,4.67,0,0,1,2.64,2.75,4.78,4.78,0,0,1-.22,3.74L415,83.75Q413.38,87.38,410,87.38Z"/><path class="cls-2" d="M456.61,17.53a7,7,0,0,1-5.12-2.14,7,7,0,0,1-2.14-5.12,7,7,0,0,1,2.14-5.11,7.16,7.16,0,0,1,10.23,0,7,7,0,0,1,2.15,5.11,7,7,0,0,1-2.15,5.12A7,7,0,0,1,456.61,17.53Zm0,70A5.44,5.44,0,0,1,451,81.88V32.93a5.42,5.42,0,0,1,1.59-4.07,5.59,5.59,0,0,1,9.63,4.07V81.88a5.57,5.57,0,0,1-1.54,4A5.42,5.42,0,0,1,456.61,87.49Z"/><path class="cls-2" d="M480.59,39a5.29,5.29,0,0,1-3.74-1.32,4.28,4.28,0,0,1-1.43-3.3,4.55,4.55,0,0,1,1.43-3.52,5.29,5.29,0,0,1,3.74-1.32H506a5.31,5.31,0,0,1,3.74,1.32,4.58,4.58,0,0,1,1.43,3.52,4.32,4.32,0,0,1-1.43,3.3A5.31,5.31,0,0,1,506,39ZM505,87.49a18,18,0,0,1-9.9-2.8A19.57,19.57,0,0,1,488.18,77a23.07,23.07,0,0,1-2.53-10.89V13.68a5.5,5.5,0,1,1,11,0V66.15a11.24,11.24,0,0,0,2.42,7.37,7.38,7.38,0,0,0,5.94,3h3.74A4.35,4.35,0,0,1,512.1,78a5.72,5.72,0,0,1,1.38,4,4.94,4.94,0,0,1-1.82,4A7,7,0,0,1,507,87.49Z"/><path class="cls-3" d="M198.26,130.57a1.25,1.25,0,0,1-.35-.95v-11.7a1.22,1.22,0,0,1,.33-.9,1.26,1.26,0,0,1,.91-.32h4.92a5.12,5.12,0,0,1,3.52,1.13,4.63,4.63,0,0,1,0,6.35,5.07,5.07,0,0,1-3.52,1.14h-3.58v4.3a1.29,1.29,0,0,1-.35.95,1.27,1.27,0,0,1-.95.35A1.22,1.22,0,0,1,198.26,130.57Zm8.15-9.55c0-1.54-.89-2.32-2.66-2.32h-3.26v4.64h3.26C205.52,123.34,206.41,122.57,206.41,121Z"/><path class="cls-3" d="M212.5,130.56a1.26,1.26,0,0,1-.35-.94V117.88a1.2,1.2,0,0,1,1.28-1.28,1.31,1.31,0,0,1,.95.35,1.29,1.29,0,0,1,.35.93v11.74a1.3,1.3,0,0,1-.35.94,1.27,1.27,0,0,1-.95.36A1.23,1.23,0,0,1,212.5,130.56Z"/><path class="cls-3" d="M219.14,130.48a1.19,1.19,0,0,1-.33-.9V117.92a1.22,1.22,0,0,1,.33-.9,1.26,1.26,0,0,1,.91-.32h4a7.44,7.44,0,0,1,5.37,1.85,8,8,0,0,1,0,10.4A7.39,7.39,0,0,1,224,130.8h-4A1.22,1.22,0,0,1,219.14,130.48Zm9.57-6.74q0-4.93-4.86-4.94h-2.46v9.9h2.46Q228.71,128.7,228.71,123.74Z"/><path class="cls-3" d="M235.26,130.48a1.19,1.19,0,0,1-.33-.9V117.92a1.22,1.22,0,0,1,.33-.9,1.26,1.26,0,0,1,.91-.32h7.22a1.44,1.44,0,0,1,.9.26.92.92,0,0,1,.32.74,1,1,0,0,1-.32.77,1.38,1.38,0,0,1-.9.27h-5.94v3.88H243a1.44,1.44,0,0,1,.9.26,1,1,0,0,1,.32.76.9.9,0,0,1-.32.74,1.38,1.38,0,0,1-.9.26h-5.54v4.12h5.94a1.38,1.38,0,0,1,.9.27,1,1,0,0,1,.32.77.9.9,0,0,1-.32.74,1.38,1.38,0,0,1-.9.26h-7.22A1.22,1.22,0,0,1,235.26,130.48Z"/><path class="cls-3" d="M265.73,129.88a1,1,0,0,1-.37.76,1.35,1.35,0,0,1-.87.3,1.28,1.28,0,0,1-.61-.15,1.24,1.24,0,0,1-.49-.45l-2.66-4a2.75,2.75,0,0,0-.85-.9,2.36,2.36,0,0,0-1.17-.26h-2v4.48a1.33,1.33,0,0,1-.34.95,1.4,1.4,0,0,1-1.85,0,1.25,1.25,0,0,1-.35-.95v-11.7a1.22,1.22,0,0,1,.33-.9,1.26,1.26,0,0,1,.91-.32h5a5.5,5.5,0,0,1,3.65,1.07,4.4,4.4,0,0,1,.32,5.78,4.41,4.41,0,0,1-2.63,1.35,2.7,2.7,0,0,1,1,.5,4.64,4.64,0,0,1,.86,1l1.82,2.78A1.28,1.28,0,0,1,265.73,129.88Zm-3.5-7.27a2.44,2.44,0,0,0,0-3.38,3.53,3.53,0,0,0-2.14-.53h-3.36v4.46h3.36A3.39,3.39,0,0,0,262.23,122.61Z"/><path class="cls-3" d="M281.89,129.78a1,1,0,0,1-.37.78,1.24,1.24,0,0,1-.85.32,1,1,0,0,1-.6-.17,1.07,1.07,0,0,1-.44-.53l-1.2-2.68h-7l-1.2,2.68a1.18,1.18,0,0,1-.44.53,1.14,1.14,0,0,1-.62.17,1.23,1.23,0,0,1-.84-.32,1,1,0,0,1-.38-.78,1.27,1.27,0,0,1,.12-.52l5.52-11.86a1.3,1.3,0,0,1,.55-.61,1.56,1.56,0,0,1,.79-.21,1.58,1.58,0,0,1,.79.21,1.36,1.36,0,0,1,.55.61l5.54,11.86A1.27,1.27,0,0,1,281.89,129.78Zm-9.62-4.28h5.28l-2.64-5.94Zm2.62-9.9a.58.58,0,0,1-.44-.17.51.51,0,0,1-.18-.39.64.64,0,0,1,.22-.44l1.82-1.88a1.18,1.18,0,0,1,.86-.4,1,1,0,0,1,.69.29,1,1,0,0,1,.29.67.86.86,0,0,1-.17.5,1.55,1.55,0,0,1-.51.42l-2.26,1.32A.66.66,0,0,1,274.89,115.6Z"/><path class="cls-3" d="M285.22,130.57a1.25,1.25,0,0,1-.35-.95v-11.7a1.22,1.22,0,0,1,.33-.9,1.26,1.26,0,0,1,.91-.32H291a5.12,5.12,0,0,1,3.52,1.13,4.63,4.63,0,0,1,0,6.35,5.07,5.07,0,0,1-3.52,1.14h-3.58v4.3a1.29,1.29,0,0,1-.35.95,1.27,1.27,0,0,1-1,.35A1.22,1.22,0,0,1,285.22,130.57Zm8.15-9.55c0-1.54-.89-2.32-2.66-2.32h-3.26v4.64h3.26C292.48,123.34,293.37,122.57,293.37,121Z"/><path class="cls-3" d="M299.46,130.56a1.26,1.26,0,0,1-.35-.94V117.88a1.2,1.2,0,0,1,1.28-1.28,1.31,1.31,0,0,1,.95.35,1.29,1.29,0,0,1,.35.93v11.74a1.3,1.3,0,0,1-.35.94,1.27,1.27,0,0,1-.95.36A1.23,1.23,0,0,1,299.46,130.56Z"/><path class="cls-3" d="M306.09,130.48a1.19,1.19,0,0,1-.33-.9V117.92a1.22,1.22,0,0,1,.33-.9,1.28,1.28,0,0,1,.91-.32h4a7.4,7.4,0,0,1,5.37,1.85,8,8,0,0,1,0,10.4A7.36,7.36,0,0,1,311,130.8h-4A1.23,1.23,0,0,1,306.09,130.48Zm9.57-6.74q0-4.93-4.86-4.94h-2.46v9.9h2.46Q315.66,128.7,315.66,123.74Z"/><path class="cls-3" d="M324.59,130.1a5.87,5.87,0,0,1-2.33-2.52,9.43,9.43,0,0,1,0-7.67,5.86,5.86,0,0,1,2.34-2.51,7.68,7.68,0,0,1,7.14,0,5.87,5.87,0,0,1,2.32,2.51,8.54,8.54,0,0,1,.81,3.83,8.42,8.42,0,0,1-.82,3.84,5.75,5.75,0,0,1-2.33,2.52,6.88,6.88,0,0,1-3.55.88A7,7,0,0,1,324.59,130.1Zm6.6-2.52a7.29,7.29,0,0,0,0-7.67,3.7,3.7,0,0,0-3-1.33,3.76,3.76,0,0,0-3.05,1.33,7.29,7.29,0,0,0,0,7.67,3.71,3.71,0,0,0,3.05,1.34A3.65,3.65,0,0,0,331.19,127.58Z"/><path class="cls-3" d="M339.87,128.42a2.23,2.23,0,0,1,.42,1.46,4.58,4.58,0,0,1-1.32,3.28.77.77,0,0,1-.56.26.71.71,0,0,1-.52-.2.61.61,0,0,1-.22-.48.66.66,0,0,1,.2-.46,3,3,0,0,0,.78-1.44,1.45,1.45,0,0,1-.95-.45,1.34,1.34,0,0,1-.37-1,1.48,1.48,0,0,1,.41-1.07,1.45,1.45,0,0,1,2.13.07Z"/><path class="cls-3" d="M350.64,130.48a1.19,1.19,0,0,1-.33-.9V117.92a1.22,1.22,0,0,1,.33-.9,1.25,1.25,0,0,1,.9-.32h4a7.44,7.44,0,0,1,5.37,1.85,8,8,0,0,1,0,10.4,7.39,7.39,0,0,1-5.37,1.85h-4A1.21,1.21,0,0,1,350.64,130.48Zm9.57-6.74q0-4.93-4.86-4.94h-2.46v9.9h2.46Q360.21,128.7,360.21,123.74Z"/><path class="cls-3" d="M366.78,130.56a1.26,1.26,0,0,1-.35-.94V117.88a1.2,1.2,0,0,1,1.28-1.28,1.31,1.31,0,0,1,1,.35,1.29,1.29,0,0,1,.35.93v11.74a1.3,1.3,0,0,1-.35.94,1.27,1.27,0,0,1-1,.36A1.23,1.23,0,0,1,366.78,130.56Z"/><path class="cls-3" d="M375.06,130.57a6.35,6.35,0,0,1-2.24-1.11,1.12,1.12,0,0,1-.46-1,1.17,1.17,0,0,1,.25-.73.78.78,0,0,1,.6-.31,1.67,1.67,0,0,1,.81.28,5.84,5.84,0,0,0,1.8.9,7.22,7.22,0,0,0,2.08.28,4.12,4.12,0,0,0,2.25-.51,1.65,1.65,0,0,0,.77-1.49,1.29,1.29,0,0,0-.73-1.17,9.93,9.93,0,0,0-2.42-.79,13.87,13.87,0,0,1-2.87-.88,4,4,0,0,1-1.65-1.28,3.27,3.27,0,0,1-.56-2,3.79,3.79,0,0,1,.69-2.22,4.67,4.67,0,0,1,2-1.53,7.73,7.73,0,0,1,7.47,1,1.49,1.49,0,0,1,.36.43,1.07,1.07,0,0,1,.12.53,1.15,1.15,0,0,1-.25.73.75.75,0,0,1-.6.31,1.15,1.15,0,0,1-.37-.06,2.53,2.53,0,0,1-.44-.22,7.15,7.15,0,0,0-1.59-.89,5.52,5.52,0,0,0-1.89-.29,3.74,3.74,0,0,0-2.15.55,1.76,1.76,0,0,0-.79,1.53,1.4,1.4,0,0,0,.69,1.26,8,8,0,0,0,2.39.82,16.62,16.62,0,0,1,2.88.89,4.4,4.4,0,0,1,1.71,1.25,3,3,0,0,1,.58,1.9,3.62,3.62,0,0,1-.69,2.19,4.35,4.35,0,0,1-1.93,1.48A7.25,7.25,0,0,1,378,131,9.82,9.82,0,0,1,375.06,130.57Z"/><path class="cls-3" d="M387.23,130.56a1.3,1.3,0,0,1-.35-.94v-11.7a1.22,1.22,0,0,1,.33-.9,1.28,1.28,0,0,1,.91-.32h7c.82,0,1.22.35,1.22,1s-.4,1-1.22,1h-5.72v3.84h5.32c.82,0,1.22.35,1.22,1s-.4,1-1.22,1h-5.32v5a1.33,1.33,0,0,1-.33.94,1.23,1.23,0,0,1-.93.36A1.26,1.26,0,0,1,387.23,130.56Z"/><path class="cls-3" d="M410.76,129.88a.92.92,0,0,1-.37.76,1.31,1.31,0,0,1-.87.3,1.34,1.34,0,0,1-.61-.15,1.39,1.39,0,0,1-.49-.45l-2.66-4a2.65,2.65,0,0,0-.85-.9,2.36,2.36,0,0,0-1.17-.26h-2v4.48a1.29,1.29,0,0,1-.34.95,1.18,1.18,0,0,1-.92.35,1.25,1.25,0,0,1-.93-.35,1.29,1.29,0,0,1-.35-.95v-11.7a1.22,1.22,0,0,1,.33-.9,1.28,1.28,0,0,1,.91-.32h5a5.48,5.48,0,0,1,3.65,1.07,3.84,3.84,0,0,1,1.25,3.09,3.89,3.89,0,0,1-.93,2.69,4.38,4.38,0,0,1-2.63,1.35,2.57,2.57,0,0,1,1,.5,4.38,4.38,0,0,1,.86,1l1.82,2.78A1.28,1.28,0,0,1,410.76,129.88Zm-3.5-7.27a2.44,2.44,0,0,0,0-3.38,3.49,3.49,0,0,0-2.14-.53h-3.36v4.46h3.36A3.35,3.35,0,0,0,407.26,122.61Z"/><path class="cls-3" d="M415.6,129.48a5.93,5.93,0,0,1-1.5-4.38v-7.22a1.33,1.33,0,0,1,.34-.93,1.25,1.25,0,0,1,.92-.35,1.22,1.22,0,0,1,.92.35,1.29,1.29,0,0,1,.34.93v7.36a3.92,3.92,0,0,0,.86,2.75,3.28,3.28,0,0,0,2.52.93,3.19,3.19,0,0,0,2.5-.94,3.88,3.88,0,0,0,.86-2.74v-7.36a1.33,1.33,0,0,1,.34-.93,1.25,1.25,0,0,1,.92-.35,1.22,1.22,0,0,1,.92.35,1.29,1.29,0,0,1,.34.93v7.22a6.23,6.23,0,0,1-10.28,4.38Z"/><path class="cls-3" d="M433.55,130.55a1.26,1.26,0,0,1-.35-.93v-10.8h-3.64c-.8,0-1.2-.35-1.2-1.06s.4-1.06,1.2-1.06h9.86c.8,0,1.2.36,1.2,1.06s-.4,1.06-1.2,1.06h-3.64v10.8a1.2,1.2,0,0,1-1.28,1.28A1.27,1.27,0,0,1,433.55,130.55Z"/><path class="cls-3" d="M454.34,129.78a1,1,0,0,1-.37.78,1.22,1.22,0,0,1-.85.32,1.09,1.09,0,0,1-.6-.17,1.18,1.18,0,0,1-.44-.53l-1.2-2.68h-7l-1.2,2.68a1.07,1.07,0,0,1-.44.53,1.09,1.09,0,0,1-.62.17,1.27,1.27,0,0,1-.84-.32,1,1,0,0,1-.38-.78,1.27,1.27,0,0,1,.12-.52L446,117.4a1.36,1.36,0,0,1,.55-.61,1.58,1.58,0,0,1,.79-.21,1.56,1.56,0,0,1,.79.21,1.3,1.3,0,0,1,.55.61l5.54,11.86A1.27,1.27,0,0,1,454.34,129.78Zm-9.62-4.28H450l-2.64-5.94Z"/><path class="cls-3" d="M477.2,117a1.29,1.29,0,0,1,.34.93v11.84a1.15,1.15,0,0,1-.32.88,1.1,1.1,0,0,1-.84.32,1.06,1.06,0,0,1-.82-.32,1.22,1.22,0,0,1-.3-.88v-8.24l-3.4,6.44a1.88,1.88,0,0,1-.52.65,1,1,0,0,1-.66.21,1.08,1.08,0,0,1-.66-.2,1.85,1.85,0,0,1-.52-.66l-3.42-6.34v8.14a1.2,1.2,0,0,1-.31.87,1.07,1.07,0,0,1-.83.33,1.06,1.06,0,0,1-.82-.32,1.22,1.22,0,0,1-.3-.88V117.88a1.32,1.32,0,0,1,.33-.93,1.18,1.18,0,0,1,.89-.35,1.35,1.35,0,0,1,1.22.86l4.44,8.46,4.42-8.46a1.34,1.34,0,0,1,1.18-.86A1.19,1.19,0,0,1,477.2,117Z"/><path class="cls-3" d="M494.54,129.78a1,1,0,0,1-.37.78,1.22,1.22,0,0,1-.85.32,1.09,1.09,0,0,1-.6-.17,1.18,1.18,0,0,1-.44-.53l-1.2-2.68h-7l-1.2,2.68a1.07,1.07,0,0,1-.44.53,1.09,1.09,0,0,1-.62.17,1.27,1.27,0,0,1-.84-.32,1,1,0,0,1-.38-.78,1.27,1.27,0,0,1,.12-.52l5.52-11.86a1.36,1.36,0,0,1,.55-.61,1.58,1.58,0,0,1,.79-.21,1.56,1.56,0,0,1,.79.21,1.3,1.3,0,0,1,.55.61l5.54,11.86A1.27,1.27,0,0,1,494.54,129.78Zm-9.62-4.28h5.28l-2.64-5.94Zm2.62-9.9a.6.6,0,0,1-.44-.17.51.51,0,0,1-.18-.39.68.68,0,0,1,.22-.44l1.82-1.88a1.2,1.2,0,0,1,.86-.4.94.94,0,0,1,.69.29.91.91,0,0,1,.29.67.8.8,0,0,1-.17.5,1.37,1.37,0,0,1-.51.42l-2.26,1.32A.61.61,0,0,1,487.54,115.6Z"/><path class="cls-3" d="M499.33,130.57a6.38,6.38,0,0,1-2.23-1.11,1.12,1.12,0,0,1-.46-1,1.17,1.17,0,0,1,.25-.73.77.77,0,0,1,.59-.31,1.67,1.67,0,0,1,.82.28,5.84,5.84,0,0,0,1.8.9,7.17,7.17,0,0,0,2.08.28,4.08,4.08,0,0,0,2.24-.51,1.66,1.66,0,0,0,.78-1.49,1.29,1.29,0,0,0-.73-1.17A9.89,9.89,0,0,0,502,125a14,14,0,0,1-2.86-.88,4.08,4.08,0,0,1-1.66-1.28,3.33,3.33,0,0,1-.56-2,3.8,3.8,0,0,1,.7-2.22,4.71,4.71,0,0,1,1.95-1.53,7.73,7.73,0,0,1,7.47,1,1.4,1.4,0,0,1,.37.43,1.07,1.07,0,0,1,.11.53,1.1,1.1,0,0,1-.25.73.72.72,0,0,1-.59.31,1.15,1.15,0,0,1-.37-.06,3,3,0,0,1-.45-.22,6.73,6.73,0,0,0-1.59-.89,5.44,5.44,0,0,0-1.89-.29,3.78,3.78,0,0,0-2.15.55,1.78,1.78,0,0,0-.79,1.53,1.41,1.41,0,0,0,.7,1.26,8,8,0,0,0,2.38.82,16.77,16.77,0,0,1,2.89.89,4.36,4.36,0,0,1,1.7,1.25,3,3,0,0,1,.59,1.9,3.62,3.62,0,0,1-.69,2.19,4.38,4.38,0,0,1-1.94,1.48,7.17,7.17,0,0,1-2.87.53A9.94,9.94,0,0,1,499.33,130.57Z"/></g></g></svg>